<svg xmlns="http://www.w3.org/2000/svg" xmlns:xlink="http://www.w3.org/1999/xlink" width="500" zoomAndPan="magnify" viewBox="0 0 375 374.999991" height="500" preserveAspectRatio="xMidYMid meet" version="1.0"><defs><g/><clipPath id="1ab57755a6"><path d="M 71.539062 139.003906 L 116 139.003906 L 116 184 L 71.539062 184 Z M 71.539062 139.003906 " clip-rule="nonzero"/></clipPath><clipPath id="78b451e98d"><path d="M 115 139.003906 L 159.289062 139.003906 L 159.289062 184 L 115 184 Z M 115 139.003906 " clip-rule="nonzero"/></clipPath><clipPath id="48ed1ef10d"><path d="M 71.539062 183 L 116 183 L 116 226.753906 L 71.539062 226.753906 Z M 71.539062 183 " clip-rule="nonzero"/></clipPath><clipPath id="4a8e5a2496"><path d="M 115 183 L 159.289062 183 L 159.289062 226.753906 L 115 226.753906 Z M 115 183 " clip-rule="nonzero"/></clipPath></defs><g clip-path="url(#1ab57755a6)"><path fill="#212529" d="M 71.539062 139.003906 L 93.546875 139.003906 L 115.554688 161.007812 L 115.554688 183.015625 L 93.546875 183.015625 L 71.539062 161.007812 Z M 71.539062 139.003906 " fill-opacity="1" fill-rule="evenodd"/></g><g clip-path="url(#78b451e98d)"><path fill="#495057" d="M 115.554688 139.003906 L 137.554688 139.003906 L 159.558594 161.007812 L 159.558594 183.015625 L 137.554688 183.015625 L 115.554688 161.007812 Z M 115.554688 139.003906 " fill-opacity="1" fill-rule="evenodd"/></g><g clip-path="url(#48ed1ef10d)"><path fill="#495057" d="M 71.539062 183.015625 L 93.546875 183.015625 L 115.554688 205.015625 L 115.554688 227.023438 L 93.546875 227.023438 L 71.539062 205.015625 Z M 71.539062 183.015625 " fill-opacity="1" fill-rule="evenodd"/></g><g clip-path="url(#4a8e5a2496)"><path fill="#495057" d="M 115.554688 183.015625 L 137.554688 183.015625 L 159.558594 205.015625 L 159.558594 227.023438 L 137.554688 227.023438 L 115.554688 205.015625 Z M 115.554688 183.015625 " fill-opacity="1" fill-rule="evenodd"/></g><g fill="#212529" fill-opacity="1"><g transform="translate(165.402195, 181.513464)"><g><path d="M 25.53125 0 L 24.265625 -4.078125 L 23.984375 -4.078125 C 23.398438 -3.085938 22.769531 -2.285156 22.09375 -1.671875 C 21.425781 -1.066406 20.707031 -0.597656 19.9375 -0.265625 C 19.164062 0.0546875 18.351562 0.273438 17.5 0.390625 C 16.644531 0.503906 15.765625 0.5625 14.859375 0.5625 C 11.859375 0.5625 9.554688 -0.363281 7.953125 -2.21875 C 6.347656 -4.082031 5.546875 -6.957031 5.546875 -10.84375 L 5.546875 -23.765625 C 5.546875 -24.609375 5.46875 -25.289062 5.3125 -25.8125 C 5.164062 -26.34375 4.929688 -26.753906 4.609375 -27.046875 C 4.296875 -27.347656 3.890625 -27.554688 3.390625 -27.671875 C 2.890625 -27.785156 2.296875 -27.84375 1.609375 -27.84375 L 1.484375 -27.84375 L 1.484375 -30.90625 L 14.296875 -30.90625 L 14.296875 -12.4375 C 14.296875 -11.195312 14.363281 -10.078125 14.5 -9.078125 C 14.644531 -8.085938 14.882812 -7.238281 15.21875 -6.53125 C 15.5625 -5.832031 16.015625 -5.289062 16.578125 -4.90625 C 17.140625 -4.519531 17.84375 -4.328125 18.6875 -4.328125 C 19.613281 -4.328125 20.410156 -4.53125 21.078125 -4.9375 C 21.742188 -5.34375 22.285156 -5.925781 22.703125 -6.6875 C 23.128906 -7.445312 23.4375 -8.363281 23.625 -9.4375 C 23.820312 -10.519531 23.921875 -11.738281 23.921875 -13.09375 L 23.921875 -24.15625 C 23.921875 -25 23.804688 -25.664062 23.578125 -26.15625 C 23.359375 -26.644531 23.0625 -27.015625 22.6875 -27.265625 C 22.3125 -27.515625 21.867188 -27.671875 21.359375 -27.734375 C 20.859375 -27.804688 20.328125 -27.84375 19.765625 -27.84375 L 19.59375 -27.84375 L 19.59375 -30.90625 L 32.6875 -30.90625 L 32.6875 -6.703125 C 32.6875 -5.859375 32.785156 -5.195312 32.984375 -4.71875 C 33.179688 -4.238281 33.445312 -3.875 33.78125 -3.625 C 34.125 -3.382812 34.53125 -3.226562 35 -3.15625 C 35.46875 -3.09375 35.984375 -3.0625 36.546875 -3.0625 L 37.015625 -3.0625 L 37.015625 0 Z M 25.53125 0 "/></g></g></g><g fill="#212529" fill-opacity="1"><g transform="translate(201.256258, 181.513464)"><g><path d="M 20.40625 0 L 1.15625 0 L 1.15625 -3.0625 L 1.328125 -3.0625 C 1.984375 -3.0625 2.582031 -3.109375 3.125 -3.203125 C 3.664062 -3.296875 4.132812 -3.488281 4.53125 -3.78125 C 4.925781 -4.070312 5.226562 -4.488281 5.4375 -5.03125 C 5.65625 -5.582031 5.765625 -6.304688 5.765625 -7.203125 L 5.765625 -23.921875 C 5.765625 -24.773438 5.664062 -25.457031 5.46875 -25.96875 C 5.28125 -26.488281 5 -26.890625 4.625 -27.171875 C 4.257812 -27.453125 3.820312 -27.632812 3.3125 -27.71875 C 2.8125 -27.800781 2.242188 -27.84375 1.609375 -27.84375 L 1.4375 -27.84375 L 1.4375 -30.90625 L 13.09375 -30.90625 L 14.25 -26.40625 L 14.53125 -26.40625 C 14.90625 -27.269531 15.316406 -28.023438 15.765625 -28.671875 C 16.210938 -29.316406 16.75 -29.851562 17.375 -30.28125 C 18.007812 -30.71875 18.753906 -31.046875 19.609375 -31.265625 C 20.460938 -31.484375 21.476562 -31.59375 22.65625 -31.59375 C 24.925781 -31.59375 26.597656 -31.191406 27.671875 -30.390625 C 28.742188 -29.585938 29.28125 -28.425781 29.28125 -26.90625 C 29.28125 -25.144531 28.640625 -23.773438 27.359375 -22.796875 C 26.085938 -21.828125 24.285156 -21.34375 21.953125 -21.34375 C 21.953125 -22.125 21.910156 -22.816406 21.828125 -23.421875 C 21.742188 -24.023438 21.59375 -24.519531 21.375 -24.90625 C 21.164062 -25.300781 20.875 -25.601562 20.5 -25.8125 C 20.132812 -26.019531 19.679688 -26.125 19.140625 -26.125 C 18.460938 -26.125 17.878906 -25.953125 17.390625 -25.609375 C 16.910156 -25.273438 16.5 -24.835938 16.15625 -24.296875 C 15.820312 -23.765625 15.546875 -23.160156 15.328125 -22.484375 C 15.109375 -21.816406 14.9375 -21.140625 14.8125 -20.453125 C 14.695312 -19.765625 14.617188 -19.109375 14.578125 -18.484375 C 14.546875 -17.867188 14.53125 -17.335938 14.53125 -16.890625 L 14.53125 -6.921875 C 14.53125 -6.078125 14.628906 -5.394531 14.828125 -4.875 C 15.035156 -4.363281 15.316406 -3.976562 15.671875 -3.71875 C 16.035156 -3.457031 16.460938 -3.28125 16.953125 -3.1875 C 17.453125 -3.101562 17.984375 -3.0625 18.546875 -3.0625 L 20.40625 -3.0625 Z M 20.40625 0 "/></g></g></g><g fill="#212529" fill-opacity="1"><g transform="translate(228.807037, 181.513464)"><g><path d="M 34.71875 -15.5625 C 34.71875 -12.769531 34.457031 -10.359375 33.9375 -8.328125 C 33.414062 -6.304688 32.65625 -4.632812 31.65625 -3.3125 C 30.664062 -1.988281 29.4375 -1.007812 27.96875 -0.375 C 26.5 0.25 24.804688 0.5625 22.890625 0.5625 C 21.785156 0.5625 20.78125 0.4375 19.875 0.1875 C 18.976562 -0.0507812 18.164062 -0.394531 17.4375 -0.84375 C 16.71875 -1.289062 16.082031 -1.820312 15.53125 -2.4375 C 14.976562 -3.0625 14.492188 -3.75 14.078125 -4.5 L 13.546875 -4.5 L 11.9375 0 L 0.984375 0 L 0.984375 -3.0625 L 1.375 -3.0625 C 1.925781 -3.0625 2.460938 -3.109375 2.984375 -3.203125 C 3.503906 -3.296875 3.972656 -3.484375 4.390625 -3.765625 C 4.804688 -4.046875 5.140625 -4.445312 5.390625 -4.96875 C 5.640625 -5.5 5.765625 -6.207031 5.765625 -7.09375 L 5.765625 -36.90625 C 5.765625 -37.726562 5.644531 -38.390625 5.40625 -38.890625 C 5.164062 -39.390625 4.835938 -39.78125 4.421875 -40.0625 C 4.003906 -40.34375 3.519531 -40.53125 2.96875 -40.625 C 2.414062 -40.71875 1.828125 -40.765625 1.203125 -40.765625 L 0.984375 -40.765625 L 0.984375 -43.8125 L 14.53125 -43.8125 L 14.53125 -33.953125 C 14.53125 -33.347656 14.503906 -32.640625 14.453125 -31.828125 C 14.410156 -31.023438 14.359375 -30.269531 14.296875 -29.5625 C 14.222656 -28.71875 14.148438 -27.851562 14.078125 -26.96875 L 14.46875 -26.96875 C 15.289062 -28.394531 16.390625 -29.519531 17.765625 -30.34375 C 19.148438 -31.175781 20.929688 -31.59375 23.109375 -31.59375 C 24.984375 -31.59375 26.640625 -31.273438 28.078125 -30.640625 C 29.515625 -30.015625 30.722656 -29.046875 31.703125 -27.734375 C 32.691406 -26.429688 33.441406 -24.769531 33.953125 -22.75 C 34.460938 -20.738281 34.71875 -18.34375 34.71875 -15.5625 Z M 20.40625 -27.34375 C 19.257812 -27.34375 18.3125 -27.101562 17.5625 -26.625 C 16.8125 -26.144531 16.210938 -25.414062 15.765625 -24.4375 C 15.316406 -23.457031 15 -22.226562 14.8125 -20.75 C 14.625 -19.28125 14.53125 -17.550781 14.53125 -15.5625 C 14.53125 -13.664062 14.625 -11.984375 14.8125 -10.515625 C 15 -9.046875 15.316406 -7.804688 15.765625 -6.796875 C 16.210938 -5.796875 16.820312 -5.035156 17.59375 -4.515625 C 18.363281 -4.003906 19.320312 -3.75 20.46875 -3.75 C 22.363281 -3.75 23.734375 -4.769531 24.578125 -6.8125 C 25.421875 -8.851562 25.84375 -11.789062 25.84375 -15.625 C 25.84375 -19.550781 25.421875 -22.484375 24.578125 -24.421875 C 23.734375 -26.367188 22.34375 -27.34375 20.40625 -27.34375 Z M 20.40625 -27.34375 "/></g></g></g><g fill="#212529" fill-opacity="1"><g transform="translate(263.619676, 181.513464)"><g><path d="M 11.546875 -8.59375 C 11.546875 -6.9375 11.804688 -5.691406 12.328125 -4.859375 C 12.859375 -4.035156 13.6875 -3.625 14.8125 -3.625 C 15.632812 -3.625 16.378906 -3.796875 17.046875 -4.140625 C 17.710938 -4.492188 18.285156 -4.988281 18.765625 -5.625 C 19.242188 -6.269531 19.609375 -7.046875 19.859375 -7.953125 C 20.109375 -8.859375 20.234375 -9.875 20.234375 -11 L 20.234375 -15.34375 L 17.65625 -15.171875 C 16.507812 -15.117188 15.539062 -14.9375 14.75 -14.625 C 13.957031 -14.3125 13.328125 -13.882812 12.859375 -13.34375 C 12.390625 -12.800781 12.050781 -12.132812 11.84375 -11.34375 C 11.644531 -10.550781 11.546875 -9.632812 11.546875 -8.59375 Z M 16.671875 -28.125 C 15.929688 -28.125 15.3125 -27.96875 14.8125 -27.65625 C 14.320312 -27.34375 13.925781 -26.910156 13.625 -26.359375 C 13.320312 -25.804688 13.109375 -25.148438 12.984375 -24.390625 C 12.867188 -23.628906 12.8125 -22.800781 12.8125 -21.90625 C 10.21875 -21.90625 8.269531 -22.191406 6.96875 -22.765625 C 5.664062 -23.347656 5.015625 -24.347656 5.015625 -25.765625 C 5.015625 -26.816406 5.328125 -27.71875 5.953125 -28.46875 C 6.578125 -29.21875 7.429688 -29.828125 8.515625 -30.296875 C 9.597656 -30.765625 10.851562 -31.101562 12.28125 -31.3125 C 13.71875 -31.53125 15.253906 -31.640625 16.890625 -31.640625 C 18.921875 -31.640625 20.691406 -31.46875 22.203125 -31.125 C 23.710938 -30.78125 24.96875 -30.222656 25.96875 -29.453125 C 26.976562 -28.679688 27.734375 -27.671875 28.234375 -26.421875 C 28.742188 -25.171875 29 -23.644531 29 -21.84375 L 29 -7.15625 C 29 -6.363281 29.054688 -5.703125 29.171875 -5.171875 C 29.296875 -4.648438 29.488281 -4.234375 29.75 -3.921875 C 30.019531 -3.617188 30.378906 -3.398438 30.828125 -3.265625 C 31.273438 -3.128906 31.816406 -3.0625 32.453125 -3.0625 L 32.6875 -3.0625 L 32.6875 0 L 21.953125 0 L 20.75 -3.96875 L 20.234375 -3.96875 C 19.597656 -3.195312 19 -2.523438 18.4375 -1.953125 C 17.875 -1.378906 17.273438 -0.90625 16.640625 -0.53125 C 16.003906 -0.15625 15.285156 0.117188 14.484375 0.296875 C 13.679688 0.472656 12.738281 0.5625 11.65625 0.5625 C 10.375 0.5625 9.1875 0.375 8.09375 0 C 7 -0.375 6.039062 -0.953125 5.21875 -1.734375 C 4.40625 -2.515625 3.765625 -3.488281 3.296875 -4.65625 C 2.828125 -5.832031 2.59375 -7.21875 2.59375 -8.8125 C 2.59375 -11.945312 3.664062 -14.265625 5.8125 -15.765625 C 7.957031 -17.265625 11.191406 -18.082031 15.515625 -18.21875 L 20.234375 -18.390625 L 20.234375 -21.5625 C 20.234375 -22.519531 20.195312 -23.398438 20.125 -24.203125 C 20.050781 -25.015625 19.890625 -25.710938 19.640625 -26.296875 C 19.398438 -26.878906 19.039062 -27.328125 18.5625 -27.640625 C 18.082031 -27.960938 17.453125 -28.125 16.671875 -28.125 Z M 16.671875 -28.125 "/></g></g></g><g fill="#212529" fill-opacity="1"><g transform="translate(295.561348, 181.513464)"><g><path d="M 24.15625 0 L 24.15625 -18.96875 C 24.15625 -20.207031 24.070312 -21.3125 23.90625 -22.28125 C 23.75 -23.25 23.488281 -24.0625 23.125 -24.71875 C 22.757812 -25.375 22.28125 -25.875 21.6875 -26.21875 C 21.09375 -26.570312 20.375 -26.75 19.53125 -26.75 C 18.582031 -26.75 17.785156 -26.503906 17.140625 -26.015625 C 16.503906 -25.523438 15.992188 -24.867188 15.609375 -24.046875 C 15.222656 -23.234375 14.945312 -22.285156 14.78125 -21.203125 C 14.613281 -20.128906 14.53125 -19.003906 14.53125 -17.828125 L 14.53125 -6.8125 C 14.53125 -6.007812 14.628906 -5.363281 14.828125 -4.875 C 15.023438 -4.382812 15.300781 -4.003906 15.65625 -3.734375 C 16.007812 -3.460938 16.441406 -3.28125 16.953125 -3.1875 C 17.472656 -3.101562 18.050781 -3.0625 18.6875 -3.0625 L 18.859375 -3.0625 L 18.859375 0 L 1.15625 0 L 1.15625 -3.0625 L 1.265625 -3.0625 C 1.921875 -3.0625 2.519531 -3.101562 3.0625 -3.1875 C 3.613281 -3.28125 4.085938 -3.46875 4.484375 -3.75 C 4.890625 -4.03125 5.203125 -4.429688 5.421875 -4.953125 C 5.648438 -5.484375 5.765625 -6.175781 5.765625 -7.03125 L 5.765625 -24.09375 C 5.765625 -24.90625 5.664062 -25.550781 5.46875 -26.03125 C 5.28125 -26.519531 5 -26.898438 4.625 -27.171875 C 4.257812 -27.453125 3.820312 -27.632812 3.3125 -27.71875 C 2.8125 -27.800781 2.242188 -27.84375 1.609375 -27.84375 L 1.4375 -27.84375 L 1.4375 -30.90625 L 13.546875 -30.90625 L 14.296875 -26.796875 L 14.578125 -26.796875 C 15.160156 -27.890625 15.773438 -28.753906 16.421875 -29.390625 C 17.066406 -30.023438 17.753906 -30.507812 18.484375 -30.84375 C 19.222656 -31.1875 20 -31.40625 20.8125 -31.5 C 21.632812 -31.59375 22.492188 -31.640625 23.390625 -31.640625 C 24.878906 -31.640625 26.210938 -31.421875 27.390625 -30.984375 C 28.578125 -30.554688 29.578125 -29.890625 30.390625 -28.984375 C 31.203125 -28.085938 31.820312 -26.941406 32.25 -25.546875 C 32.6875 -24.148438 32.90625 -22.472656 32.90625 -20.515625 L 32.90625 -7.15625 C 32.90625 -6.25 32.984375 -5.523438 33.140625 -4.984375 C 33.304688 -4.453125 33.546875 -4.046875 33.859375 -3.765625 C 34.179688 -3.484375 34.585938 -3.296875 35.078125 -3.203125 C 35.566406 -3.109375 36.140625 -3.0625 36.796875 -3.0625 L 36.96875 -3.0625 L 36.96875 0 Z M 24.15625 0 "/></g></g></g><g fill="#212529" fill-opacity="1"><g transform="translate(165.402195, 228.763461)"><g><path d="M 18.109375 -4.078125 C 18.859375 -4.078125 19.570312 -4.128906 20.25 -4.234375 C 20.9375 -4.335938 21.582031 -4.460938 22.1875 -4.609375 L 22.1875 -0.875 C 21.882812 -0.71875 21.472656 -0.554688 20.953125 -0.390625 C 20.441406 -0.222656 19.84375 -0.0703125 19.15625 0.0625 C 18.46875 0.207031 17.691406 0.328125 16.828125 0.421875 C 15.972656 0.515625 15.035156 0.5625 14.015625 0.5625 C 12.722656 0.5625 11.550781 0.40625 10.5 0.09375 C 9.445312 -0.207031 8.554688 -0.71875 7.828125 -1.4375 C 7.097656 -2.164062 6.535156 -3.109375 6.140625 -4.265625 C 5.742188 -5.421875 5.546875 -6.84375 5.546875 -8.53125 L 5.546875 -26.96875 L 1.203125 -26.96875 L 1.203125 -29.921875 C 2.441406 -29.921875 3.550781 -30.164062 4.53125 -30.65625 C 5.507812 -31.144531 6.289062 -31.707031 6.875 -32.34375 C 8.050781 -33.582031 8.929688 -35.488281 9.515625 -38.0625 L 14.296875 -38.0625 L 14.296875 -30.90625 L 21.671875 -30.90625 L 21.671875 -26.96875 L 14.296875 -26.96875 L 14.296875 -9.125 C 14.296875 -7.375 14.59375 -6.09375 15.1875 -5.28125 C 15.78125 -4.476562 16.753906 -4.078125 18.109375 -4.078125 Z M 18.109375 -4.078125 "/></g></g></g><g fill="#212529" fill-opacity="1"><g transform="translate(186.141463, 228.763461)"><g><path d="M 20.40625 0 L 1.15625 0 L 1.15625 -3.0625 L 1.328125 -3.0625 C 1.984375 -3.0625 2.582031 -3.109375 3.125 -3.203125 C 3.664062 -3.296875 4.132812 -3.488281 4.53125 -3.78125 C 4.925781 -4.070312 5.226562 -4.488281 5.4375 -5.03125 C 5.65625 -5.582031 5.765625 -6.304688 5.765625 -7.203125 L 5.765625 -23.921875 C 5.765625 -24.773438 5.664062 -25.457031 5.46875 -25.96875 C 5.28125 -26.488281 5 -26.890625 4.625 -27.171875 C 4.257812 -27.453125 3.820312 -27.632812 3.3125 -27.71875 C 2.8125 -27.800781 2.242188 -27.84375 1.609375 -27.84375 L 1.4375 -27.84375 L 1.4375 -30.90625 L 13.09375 -30.90625 L 14.25 -26.40625 L 14.53125 -26.40625 C 14.90625 -27.269531 15.316406 -28.023438 15.765625 -28.671875 C 16.210938 -29.316406 16.75 -29.851562 17.375 -30.28125 C 18.007812 -30.71875 18.753906 -31.046875 19.609375 -31.265625 C 20.460938 -31.484375 21.476562 -31.59375 22.65625 -31.59375 C 24.925781 -31.59375 26.597656 -31.191406 27.671875 -30.390625 C 28.742188 -29.585938 29.28125 -28.425781 29.28125 -26.90625 C 29.28125 -25.144531 28.640625 -23.773438 27.359375 -22.796875 C 26.085938 -21.828125 24.285156 -21.34375 21.953125 -21.34375 C 21.953125 -22.125 21.910156 -22.816406 21.828125 -23.421875 C 21.742188 -24.023438 21.59375 -24.519531 21.375 -24.90625 C 21.164062 -25.300781 20.875 -25.601562 20.5 -25.8125 C 20.132812 -26.019531 19.679688 -26.125 19.140625 -26.125 C 18.460938 -26.125 17.878906 -25.953125 17.390625 -25.609375 C 16.910156 -25.273438 16.5 -24.835938 16.15625 -24.296875 C 15.820312 -23.765625 15.546875 -23.160156 15.328125 -22.484375 C 15.109375 -21.816406 14.9375 -21.140625 14.8125 -20.453125 C 14.695312 -19.765625 14.617188 -19.109375 14.578125 -18.484375 C 14.546875 -17.867188 14.53125 -17.335938 14.53125 -16.890625 L 14.53125 -6.921875 C 14.53125 -6.078125 14.628906 -5.394531 14.828125 -4.875 C 15.035156 -4.363281 15.316406 -3.976562 15.671875 -3.71875 C 16.035156 -3.457031 16.460938 -3.28125 16.953125 -3.1875 C 17.453125 -3.101562 17.984375 -3.0625 18.546875 -3.0625 L 20.40625 -3.0625 Z M 20.40625 0 "/></g></g></g><g fill="#212529" fill-opacity="1"><g transform="translate(213.692243, 228.763461)"><g><path d="M 17.109375 -27.90625 C 15.503906 -27.90625 14.226562 -27.101562 13.28125 -25.5 C 12.332031 -23.90625 11.8125 -21.570312 11.71875 -18.5 L 21.671875 -18.5 C 21.671875 -19.957031 21.585938 -21.269531 21.421875 -22.4375 C 21.253906 -23.601562 20.988281 -24.585938 20.625 -25.390625 C 20.257812 -26.203125 19.789062 -26.820312 19.21875 -27.25 C 18.644531 -27.6875 17.941406 -27.90625 17.109375 -27.90625 Z M 17.65625 0.5625 C 15.207031 0.5625 13.050781 0.207031 11.1875 -0.5 C 9.320312 -1.21875 7.757812 -2.25 6.5 -3.59375 C 5.238281 -4.945312 4.289062 -6.601562 3.65625 -8.5625 C 3.019531 -10.53125 2.703125 -12.769531 2.703125 -15.28125 C 2.703125 -17.988281 3.019531 -20.363281 3.65625 -22.40625 C 4.289062 -24.457031 5.21875 -26.164062 6.4375 -27.53125 C 7.664062 -28.90625 9.164062 -29.929688 10.9375 -30.609375 C 12.707031 -31.296875 14.726562 -31.640625 17 -31.640625 C 19.082031 -31.640625 20.957031 -31.34375 22.625 -30.75 C 24.300781 -30.164062 25.71875 -29.289062 26.875 -28.125 C 28.039062 -26.957031 28.929688 -25.507812 29.546875 -23.78125 C 30.171875 -22.0625 30.484375 -20.054688 30.484375 -17.765625 L 30.484375 -14.8125 L 11.59375 -14.8125 C 11.65625 -12.875 11.867188 -11.207031 12.234375 -9.8125 C 12.597656 -8.425781 13.101562 -7.285156 13.75 -6.390625 C 14.394531 -5.492188 15.179688 -4.828125 16.109375 -4.390625 C 17.046875 -3.960938 18.113281 -3.75 19.3125 -3.75 C 20.300781 -3.75 21.21875 -3.863281 22.0625 -4.09375 C 22.914062 -4.332031 23.679688 -4.660156 24.359375 -5.078125 C 25.046875 -5.503906 25.644531 -6.003906 26.15625 -6.578125 C 26.675781 -7.148438 27.109375 -7.765625 27.453125 -8.421875 C 28.484375 -7.859375 29 -6.921875 29 -5.609375 C 29 -4.773438 28.769531 -3.988281 28.3125 -3.25 C 27.863281 -2.507812 27.171875 -1.859375 26.234375 -1.296875 C 25.296875 -0.734375 24.117188 -0.285156 22.703125 0.046875 C 21.285156 0.390625 19.601562 0.5625 17.65625 0.5625 Z M 17.65625 0.5625 "/></g></g></g><g fill="#212529" fill-opacity="1"><g transform="translate(244.001403, 228.763461)"><g><path d="M 24.15625 0 L 24.15625 -18.96875 C 24.15625 -20.207031 24.070312 -21.3125 23.90625 -22.28125 C 23.75 -23.25 23.488281 -24.0625 23.125 -24.71875 C 22.757812 -25.375 22.28125 -25.875 21.6875 -26.21875 C 21.09375 -26.570312 20.375 -26.75 19.53125 -26.75 C 18.582031 -26.75 17.785156 -26.503906 17.140625 -26.015625 C 16.503906 -25.523438 15.992188 -24.867188 15.609375 -24.046875 C 15.222656 -23.234375 14.945312 -22.285156 14.78125 -21.203125 C 14.613281 -20.128906 14.53125 -19.003906 14.53125 -17.828125 L 14.53125 -6.8125 C 14.53125 -6.007812 14.628906 -5.363281 14.828125 -4.875 C 15.023438 -4.382812 15.300781 -4.003906 15.65625 -3.734375 C 16.007812 -3.460938 16.441406 -3.28125 16.953125 -3.1875 C 17.472656 -3.101562 18.050781 -3.0625 18.6875 -3.0625 L 18.859375 -3.0625 L 18.859375 0 L 1.15625 0 L 1.15625 -3.0625 L 1.265625 -3.0625 C 1.921875 -3.0625 2.519531 -3.101562 3.0625 -3.1875 C 3.613281 -3.28125 4.085938 -3.46875 4.484375 -3.75 C 4.890625 -4.03125 5.203125 -4.429688 5.421875 -4.953125 C 5.648438 -5.484375 5.765625 -6.175781 5.765625 -7.03125 L 5.765625 -24.09375 C 5.765625 -24.90625 5.664062 -25.550781 5.46875 -26.03125 C 5.28125 -26.519531 5 -26.898438 4.625 -27.171875 C 4.257812 -27.453125 3.820312 -27.632812 3.3125 -27.71875 C 2.8125 -27.800781 2.242188 -27.84375 1.609375 -27.84375 L 1.4375 -27.84375 L 1.4375 -30.90625 L 13.546875 -30.90625 L 14.296875 -26.796875 L 14.578125 -26.796875 C 15.160156 -27.890625 15.773438 -28.753906 16.421875 -29.390625 C 17.066406 -30.023438 17.753906 -30.507812 18.484375 -30.84375 C 19.222656 -31.1875 20 -31.40625 20.8125 -31.5 C 21.632812 -31.59375 22.492188 -31.640625 23.390625 -31.640625 C 24.878906 -31.640625 26.210938 -31.421875 27.390625 -30.984375 C 28.578125 -30.554688 29.578125 -29.890625 30.390625 -28.984375 C 31.203125 -28.085938 31.820312 -26.941406 32.25 -25.546875 C 32.6875 -24.148438 32.90625 -22.472656 32.90625 -20.515625 L 32.90625 -7.15625 C 32.90625 -6.25 32.984375 -5.523438 33.140625 -4.984375 C 33.304688 -4.453125 33.546875 -4.046875 33.859375 -3.765625 C 34.179688 -3.484375 34.585938 -3.296875 35.078125 -3.203125 C 35.566406 -3.109375 36.140625 -3.0625 36.796875 -3.0625 L 36.96875 -3.0625 L 36.96875 0 Z M 24.15625 0 "/></g></g></g><g fill="#212529" fill-opacity="1"><g transform="translate(279.855465, 228.763461)"><g><path d="M 31.59375 -7.09375 C 31.59375 -6.207031 31.722656 -5.5 31.984375 -4.96875 C 32.242188 -4.445312 32.59375 -4.046875 33.03125 -3.765625 C 33.476562 -3.484375 33.988281 -3.296875 34.5625 -3.203125 C 35.132812 -3.109375 35.738281 -3.0625 36.375 -3.0625 L 36.59375 -3.0625 L 36.59375 0 L 25.421875 0 L 23.8125 -4.5 L 23.28125 -4.5 C 22.851562 -3.71875 22.359375 -3.015625 21.796875 -2.390625 C 21.242188 -1.773438 20.609375 -1.242188 19.890625 -0.796875 C 19.171875 -0.359375 18.359375 -0.0234375 17.453125 0.203125 C 16.554688 0.441406 15.546875 0.5625 14.421875 0.5625 C 12.535156 0.5625 10.859375 0.25 9.390625 -0.375 C 7.929688 -1.007812 6.695312 -1.976562 5.6875 -3.28125 C 4.6875 -4.582031 3.925781 -6.238281 3.40625 -8.25 C 2.894531 -10.257812 2.640625 -12.644531 2.640625 -15.40625 C 2.640625 -18.175781 2.894531 -20.578125 3.40625 -22.609375 C 3.925781 -24.648438 4.679688 -26.332031 5.671875 -27.65625 C 6.671875 -28.976562 7.894531 -29.960938 9.34375 -30.609375 C 10.789062 -31.265625 12.441406 -31.59375 14.296875 -31.59375 C 15.390625 -31.59375 16.367188 -31.472656 17.234375 -31.234375 C 18.109375 -31.003906 18.894531 -30.6875 19.59375 -30.28125 C 20.300781 -29.875 20.925781 -29.390625 21.46875 -28.828125 C 22.019531 -28.265625 22.492188 -27.644531 22.890625 -26.96875 L 23.28125 -26.96875 C 23.207031 -28.039062 23.132812 -29.046875 23.0625 -29.984375 C 23.039062 -30.378906 23.015625 -30.78125 22.984375 -31.1875 C 22.953125 -31.601562 22.921875 -31.992188 22.890625 -32.359375 C 22.867188 -32.722656 22.851562 -33.046875 22.84375 -33.328125 C 22.832031 -33.609375 22.828125 -33.835938 22.828125 -34.015625 L 22.828125 -37.1875 C 22.828125 -37.976562 22.703125 -38.613281 22.453125 -39.09375 C 22.203125 -39.570312 21.863281 -39.929688 21.4375 -40.171875 C 21.007812 -40.421875 20.515625 -40.582031 19.953125 -40.65625 C 19.390625 -40.726562 18.789062 -40.765625 18.15625 -40.765625 L 17.703125 -40.765625 L 17.703125 -43.8125 L 31.59375 -43.8125 Z M 16.890625 -3.75 C 18.035156 -3.75 18.988281 -3.988281 19.75 -4.46875 C 20.507812 -4.945312 21.117188 -5.671875 21.578125 -6.640625 C 22.035156 -7.617188 22.359375 -8.84375 22.546875 -10.3125 C 22.734375 -11.789062 22.828125 -13.523438 22.828125 -15.515625 C 22.828125 -17.410156 22.734375 -19.09375 22.546875 -20.5625 C 22.359375 -22.039062 22.035156 -23.28125 21.578125 -24.28125 C 21.117188 -25.28125 20.507812 -26.039062 19.75 -26.5625 C 18.988281 -27.082031 18.035156 -27.34375 16.890625 -27.34375 C 15.929688 -27.34375 15.109375 -27.082031 14.421875 -26.5625 C 13.742188 -26.039062 13.191406 -25.273438 12.765625 -24.265625 C 12.347656 -23.253906 12.039062 -22.007812 11.84375 -20.53125 C 11.644531 -19.0625 11.546875 -17.367188 11.546875 -15.453125 C 11.546875 -11.535156 11.953125 -8.601562 12.765625 -6.65625 C 13.578125 -4.71875 14.953125 -3.75 16.890625 -3.75 Z M 16.890625 -3.75 "/></g></g></g><g fill="#212529" fill-opacity="1"><g transform="translate(314.668104, 228.763461)"><g><path d="M 13.3125 0.5625 C 11.226562 0.5625 9.445312 0.390625 7.96875 0.046875 C 6.5 -0.285156 5.300781 -0.75 4.375 -1.34375 C 3.445312 -1.945312 2.769531 -2.660156 2.34375 -3.484375 C 1.925781 -4.316406 1.71875 -5.210938 1.71875 -6.171875 C 1.71875 -7.109375 1.898438 -7.863281 2.265625 -8.4375 C 2.628906 -9.007812 3.085938 -9.453125 3.640625 -9.765625 C 4.191406 -10.085938 4.773438 -10.300781 5.390625 -10.40625 C 6.015625 -10.507812 6.582031 -10.5625 7.09375 -10.5625 C 7.09375 -9.351562 7.242188 -8.269531 7.546875 -7.3125 C 7.847656 -6.363281 8.269531 -5.554688 8.8125 -4.890625 C 9.351562 -4.222656 10.003906 -3.707031 10.765625 -3.34375 C 11.523438 -2.988281 12.375 -2.8125 13.3125 -2.8125 C 14.3125 -2.8125 15.171875 -2.914062 15.890625 -3.125 C 16.609375 -3.332031 17.195312 -3.617188 17.65625 -3.984375 C 18.125 -4.347656 18.46875 -4.769531 18.6875 -5.25 C 18.914062 -5.726562 19.03125 -6.226562 19.03125 -6.75 C 19.03125 -7.394531 18.910156 -7.960938 18.671875 -8.453125 C 18.441406 -8.953125 18.050781 -9.421875 17.5 -9.859375 C 16.957031 -10.304688 16.234375 -10.738281 15.328125 -11.15625 C 14.421875 -11.582031 13.289062 -12.03125 11.9375 -12.5 C 10.375 -13.039062 9 -13.613281 7.8125 -14.21875 C 6.625 -14.832031 5.617188 -15.53125 4.796875 -16.3125 C 3.984375 -17.09375 3.363281 -17.984375 2.9375 -18.984375 C 2.519531 -19.992188 2.3125 -21.144531 2.3125 -22.4375 C 2.3125 -23.976562 2.601562 -25.320312 3.1875 -26.46875 C 3.78125 -27.613281 4.617188 -28.566406 5.703125 -29.328125 C 6.796875 -30.085938 8.101562 -30.65625 9.625 -31.03125 C 11.144531 -31.40625 12.835938 -31.59375 14.703125 -31.59375 C 16.515625 -31.59375 18.054688 -31.4375 19.328125 -31.125 C 20.609375 -30.8125 21.648438 -30.398438 22.453125 -29.890625 C 23.265625 -29.390625 23.859375 -28.816406 24.234375 -28.171875 C 24.609375 -27.535156 24.796875 -26.890625 24.796875 -26.234375 C 24.796875 -24.941406 24.34375 -23.957031 23.4375 -23.28125 C 22.53125 -22.601562 21.023438 -22.265625 18.921875 -22.265625 C 18.921875 -24.179688 18.492188 -25.671875 17.640625 -26.734375 C 16.785156 -27.796875 15.519531 -28.328125 13.84375 -28.328125 C 13.226562 -28.328125 12.632812 -28.25 12.0625 -28.09375 C 11.488281 -27.945312 10.988281 -27.722656 10.5625 -27.421875 C 10.144531 -27.117188 9.804688 -26.742188 9.546875 -26.296875 C 9.296875 -25.859375 9.171875 -25.34375 9.171875 -24.75 C 9.171875 -24.125 9.285156 -23.566406 9.515625 -23.078125 C 9.753906 -22.597656 10.171875 -22.132812 10.765625 -21.6875 C 11.359375 -21.25 12.160156 -20.800781 13.171875 -20.34375 C 14.191406 -19.894531 15.488281 -19.398438 17.0625 -18.859375 C 18.332031 -18.410156 19.507812 -17.898438 20.59375 -17.328125 C 21.675781 -16.753906 22.601562 -16.097656 23.375 -15.359375 C 24.15625 -14.617188 24.757812 -13.773438 25.1875 -12.828125 C 25.625 -11.878906 25.84375 -10.796875 25.84375 -9.578125 C 25.84375 -7.972656 25.566406 -6.539062 25.015625 -5.28125 C 24.460938 -4.03125 23.648438 -2.972656 22.578125 -2.109375 C 21.503906 -1.242188 20.1875 -0.582031 18.625 -0.125 C 17.070312 0.332031 15.300781 0.5625 13.3125 0.5625 Z M 13.3125 0.5625 "/></g></g></g></svg>